<?xml version="1.0" encoding="us-ascii" standalone="no"?><svg xmlns="http://www.w3.org/2000/svg" xmlns:xlink="http://www.w3.org/1999/xlink" contentStyleType="text/css" height="1637px" preserveAspectRatio="none" style="width:1144px;height:1637px;background:#FFFFFF;" version="1.1" viewBox="0 0 1144 1637" width="1144px" zoomAndPan="magnify"><defs/><g><rect fill="none" height="20.9531" style="stroke:none;stroke-width:1.0;" width="1111" x="15" y="12.7451"/><rect fill="#F1F1F1" height="33.9688" rx="12.5" ry="12.5" style="stroke:#181818;stroke-width:0.5;" width="181" x="67.5" y="38.6982"/><text fill="#000000" font-family="sans-serif" font-size="12" lengthAdjust="spacing" textLength="161" x="77.5" y="59.8369">Click "Sign In with Google"</text><rect fill="#F1F1F1" height="33.9688" rx="12.5" ry="12.5" style="stroke:#181818;stroke-width:0.5;" width="210" x="53" y="686.3232"/><text fill="#000000" font-family="sans-serif" font-size="12" lengthAdjust="spacing" textLength="190" x="63" y="707.4619">View category selection modal</text><rect fill="#F1F1F1" height="33.9688" rx="12.5" ry="12.5" style="stroke:#181818;stroke-width:0.5;" width="226" x="45" y="740.292"/><text fill="#000000" font-family="sans-serif" font-size="12" lengthAdjust="spacing" textLength="206" x="55" y="761.4307">Select topics (e.g., Tech, Sports)</text><rect fill="#F1F1F1" height="33.9688" rx="12.5" ry="12.5" style="stroke:#181818;stroke-width:0.5;" width="131" x="92.5" y="794.2607"/><text fill="#000000" font-family="sans-serif" font-size="12" lengthAdjust="spacing" textLength="111" x="102.5" y="815.3994">Submit selections</text><rect fill="#F1F1F1" height="33.9688" rx="12.5" ry="12.5" style="stroke:#181818;stroke-width:0.5;" width="176" x="70" y="1118.0732"/><text fill="#000000" font-family="sans-serif" font-size="12" lengthAdjust="spacing" textLength="156" x="80" y="1139.2119">View city selection modal</text><rect fill="#F1F1F1" height="33.9688" rx="12.5" ry="12.5" style="stroke:#181818;stroke-width:0.5;" width="274" x="21" y="1172.042"/><text fill="#000000" font-family="sans-serif" font-size="12" lengthAdjust="spacing" textLength="254" x="31" y="1193.1807">Search and select cities (e.g., New York)</text><rect fill="#F1F1F1" height="33.9688" rx="12.5" ry="12.5" style="stroke:#181818;stroke-width:0.5;" width="131" x="92.5" y="1226.0107"/><text fill="#000000" font-family="sans-serif" font-size="12" lengthAdjust="spacing" textLength="111" x="102.5" y="1247.1494">Submit selections</text><rect fill="#F1F1F1" height="33.9688" rx="12.5" ry="12.5" style="stroke:#181818;stroke-width:0.5;" width="199" x="58.5" y="1549.8232"/><text fill="#000000" font-family="sans-serif" font-size="12" lengthAdjust="spacing" textLength="179" x="68.5" y="1570.9619">View personalized news feed</text><ellipse cx="158" cy="1614.792" fill="none" rx="11" ry="11" style="stroke:#222222;stroke-width:1.0;"/><ellipse cx="158" cy="1614.792" fill="#222222" rx="6" ry="6" style="stroke:#222222;stroke-width:1.0;"/><line style="stroke:#000000;stroke-width:1.5;" x1="15" x2="15" y1="12.7451" y2="1625.792"/><rect fill="#F1F1F1" height="33.9688" rx="12.5" ry="12.5" style="stroke:#181818;stroke-width:0.5;" width="179" x="337.5" y="92.667"/><text fill="#000000" font-family="sans-serif" font-size="12" lengthAdjust="spacing" textLength="159" x="347.5" y="113.8057">Redirect to Google OAuth</text><rect fill="#F1F1F1" height="33.9688" rx="12.5" ry="12.5" style="stroke:#181818;stroke-width:0.5;" width="189" x="332.5" y="308.542"/><text fill="#000000" font-family="sans-serif" font-size="12" lengthAdjust="spacing" textLength="169" x="342.5" y="329.6807">Receive authorization code</text><rect fill="#F1F1F1" height="33.9688" rx="12.5" ry="12.5" style="stroke:#181818;stroke-width:0.5;" width="225" x="314.5" y="362.5107"/><text fill="#000000" font-family="sans-serif" font-size="12" lengthAdjust="spacing" textLength="205" x="324.5" y="383.6494">Exchange code for access token</text><rect fill="#F1F1F1" height="33.9688" rx="12.5" ry="12.5" style="stroke:#181818;stroke-width:0.5;" width="204" x="325" y="416.4795"/><text fill="#000000" font-family="sans-serif" font-size="12" lengthAdjust="spacing" textLength="184" x="335" y="437.6182">Fetch user info (email, name)</text><rect fill="#F1F1F1" height="33.9688" rx="12.5" ry="12.5" style="stroke:#181818;stroke-width:0.5;" width="138" x="358" y="578.3857"/><text fill="#000000" font-family="sans-serif" font-size="12" lengthAdjust="spacing" textLength="118" x="368" y="599.5244">Set session cookie</text><rect fill="#F1F1F1" height="33.9688" rx="12.5" ry="12.5" style="stroke:#181818;stroke-width:0.5;" width="230" x="312" y="632.3545"/><text fill="#000000" font-family="sans-serif" font-size="12" lengthAdjust="spacing" textLength="210" x="322" y="653.4932">Redirect to /app/onboard?step=1</text><rect fill="#F1F1F1" height="33.9688" rx="12.5" ry="12.5" style="stroke:#181818;stroke-width:0.5;" width="244" x="305" y="848.2295"/><text fill="#000000" font-family="sans-serif" font-size="12" lengthAdjust="spacing" textLength="224" x="315" y="869.3682">Validate at least one topic selected</text><rect fill="#F1F1F1" height="33.9688" rx="12.5" ry="12.5" style="stroke:#181818;stroke-width:0.5;" width="168" x="343" y="902.1982"/><text fill="#000000" font-family="sans-serif" font-size="12" lengthAdjust="spacing" textLength="148" x="353" y="923.3369">Save preferences to DB</text><rect fill="#F1F1F1" height="33.9688" rx="12.5" ry="12.5" style="stroke:#181818;stroke-width:0.5;" width="230" x="312" y="1064.1045"/><text fill="#000000" font-family="sans-serif" font-size="12" lengthAdjust="spacing" textLength="210" x="322" y="1085.2432">Redirect to /app/onboard?step=2</text><rect fill="#F1F1F1" height="33.9688" rx="12.5" ry="12.5" style="stroke:#181818;stroke-width:0.5;" width="139" x="357.5" y="1279.9795"/><text fill="#000000" font-family="sans-serif" font-size="12" lengthAdjust="spacing" textLength="119" x="367.5" y="1301.1182">Validate city inputs</text><rect fill="#F1F1F1" height="33.9688" rx="12.5" ry="12.5" style="stroke:#181818;stroke-width:0.5;" width="168" x="343" y="1333.9482"/><text fill="#000000" font-family="sans-serif" font-size="12" lengthAdjust="spacing" textLength="148" x="353" y="1355.0869">Save preferences to DB</text><rect fill="#F1F1F1" height="33.9688" rx="12.5" ry="12.5" style="stroke:#181818;stroke-width:0.5;" width="121" x="366.5" y="1495.8545"/><text fill="#000000" font-family="sans-serif" font-size="12" lengthAdjust="spacing" textLength="101" x="376.5" y="1516.9932">Redirect to /app</text><line style="stroke:#000000;stroke-width:1.5;" x1="299" x2="299" y1="12.7451" y2="1625.792"/><rect fill="#F1F1F1" height="33.9688" rx="12.5" ry="12.5" style="stroke:#181818;stroke-width:0.5;" width="199" x="582" y="146.6357"/><text fill="#000000" font-family="sans-serif" font-size="12" lengthAdjust="spacing" textLength="179" x="592" y="167.7744">Prompt user to authenticate</text><rect fill="#F1F1F1" height="33.9688" rx="12.5" ry="12.5" style="stroke:#181818;stroke-width:0.5;" width="191" x="586" y="200.6045"/><text fill="#000000" font-family="sans-serif" font-size="12" lengthAdjust="spacing" textLength="171" x="596" y="221.7432">User logs in and authorizes</text><rect fill="#F1F1F1" height="33.9688" rx="12.5" ry="12.5" style="stroke:#181818;stroke-width:0.5;" width="245" x="559" y="254.5732"/><text fill="#000000" font-family="sans-serif" font-size="12" lengthAdjust="spacing" textLength="225" x="569" y="275.7119">Redirect to /auth/callback with code</text><line style="stroke:#000000;stroke-width:1.5;" x1="553" x2="553" y1="12.7451" y2="1625.792"/><rect fill="#F1F1F1" height="33.9688" rx="12.5" ry="12.5" style="stroke:#181818;stroke-width:0.5;" width="217" x="858.5" y="470.4482"/><text fill="#000000" font-family="sans-serif" font-size="12" lengthAdjust="spacing" textLength="197" x="868.5" y="491.5869">Upsert user data (email, name)</text><rect fill="#F1F1F1" height="33.9688" rx="12.5" ry="12.5" style="stroke:#181818;stroke-width:0.5;" width="105" x="914.5" y="524.417"/><text fill="#000000" font-family="sans-serif" font-size="12" lengthAdjust="spacing" textLength="85" x="924.5" y="545.5557">Return userId</text><rect fill="#F1F1F1" height="33.9688" rx="12.5" ry="12.5" style="stroke:#181818;stroke-width:0.5;" width="306" x="814" y="956.167"/><text fill="#000000" font-family="sans-serif" font-size="12" lengthAdjust="spacing" textLength="286" x="824" y="977.3057">Store preferences (userId, type=Topic, value)</text><rect fill="#F1F1F1" height="33.9688" rx="12.5" ry="12.5" style="stroke:#181818;stroke-width:0.5;" width="120" x="907" y="1010.1357"/><text fill="#000000" font-family="sans-serif" font-size="12" lengthAdjust="spacing" textLength="100" x="917" y="1031.2744">Confirm storage</text><rect fill="#F1F1F1" height="33.9688" rx="12.5" ry="12.5" style="stroke:#181818;stroke-width:0.5;" width="295" x="819.5" y="1387.917"/><text fill="#000000" font-family="sans-serif" font-size="12" lengthAdjust="spacing" textLength="275" x="829.5" y="1409.0557">Store preferences (userId, type=City, value)</text><rect fill="#F1F1F1" height="33.9688" rx="12.5" ry="12.5" style="stroke:#181818;stroke-width:0.5;" width="120" x="907" y="1441.8857"/><text fill="#000000" font-family="sans-serif" font-size="12" lengthAdjust="spacing" textLength="100" x="917" y="1463.0244">Confirm storage</text><line style="stroke:#000000;stroke-width:1.5;" x1="808" x2="808" y1="12.7451" y2="1625.792"/><line style="stroke:#000000;stroke-width:1.5;" x1="1124" x2="1124" y1="12.7451" y2="1625.792"/><line style="stroke:#181818;stroke-width:1.0;" x1="158" x2="158" y1="720.292" y2="740.292"/><polygon fill="#181818" points="154,730.292,158,740.292,162,730.292,158,734.292" style="stroke:#181818;stroke-width:1.0;"/><line style="stroke:#181818;stroke-width:1.0;" x1="158" x2="158" y1="774.2607" y2="794.2607"/><polygon fill="#181818" points="154,784.2607,158,794.2607,162,784.2607,158,788.2607" style="stroke:#181818;stroke-width:1.0;"/><line style="stroke:#181818;stroke-width:1.0;" x1="158" x2="158" y1="1152.042" y2="1172.042"/><polygon fill="#181818" points="154,1162.042,158,1172.042,162,1162.042,158,1166.042" style="stroke:#181818;stroke-width:1.0;"/><line style="stroke:#181818;stroke-width:1.0;" x1="158" x2="158" y1="1206.0107" y2="1226.0107"/><polygon fill="#181818" points="154,1216.0107,158,1226.0107,162,1216.0107,158,1220.0107" style="stroke:#181818;stroke-width:1.0;"/><line style="stroke:#181818;stroke-width:1.0;" x1="158" x2="158" y1="1583.792" y2="1603.792"/><polygon fill="#181818" points="154,1593.792,158,1603.792,162,1593.792,158,1597.792" style="stroke:#181818;stroke-width:1.0;"/><line style="stroke:#181818;stroke-width:1.0;" x1="427" x2="427" y1="342.5107" y2="362.5107"/><polygon fill="#181818" points="423,352.5107,427,362.5107,431,352.5107,427,356.5107" style="stroke:#181818;stroke-width:1.0;"/><line style="stroke:#181818;stroke-width:1.0;" x1="427" x2="427" y1="396.4795" y2="416.4795"/><polygon fill="#181818" points="423,406.4795,427,416.4795,431,406.4795,427,410.4795" style="stroke:#181818;stroke-width:1.0;"/><line style="stroke:#181818;stroke-width:1.0;" x1="427" x2="427" y1="612.3545" y2="632.3545"/><polygon fill="#181818" points="423,622.3545,427,632.3545,431,622.3545,427,626.3545" style="stroke:#181818;stroke-width:1.0;"/><line style="stroke:#181818;stroke-width:1.0;" x1="427" x2="427" y1="882.1982" y2="902.1982"/><polygon fill="#181818" points="423,892.1982,427,902.1982,431,892.1982,427,896.1982" style="stroke:#181818;stroke-width:1.0;"/><line style="stroke:#181818;stroke-width:1.0;" x1="427" x2="427" y1="1313.9482" y2="1333.9482"/><polygon fill="#181818" points="423,1323.9482,427,1333.9482,431,1323.9482,427,1327.9482" style="stroke:#181818;stroke-width:1.0;"/><line style="stroke:#181818;stroke-width:1.0;" x1="681.5" x2="681.5" y1="180.6045" y2="200.6045"/><polygon fill="#181818" points="677.5,190.6045,681.5,200.6045,685.5,190.6045,681.5,194.6045" style="stroke:#181818;stroke-width:1.0;"/><line style="stroke:#181818;stroke-width:1.0;" x1="681.5" x2="681.5" y1="234.5732" y2="254.5732"/><polygon fill="#181818" points="677.5,244.5732,681.5,254.5732,685.5,244.5732,681.5,248.5732" style="stroke:#181818;stroke-width:1.0;"/><line style="stroke:#181818;stroke-width:1.0;" x1="967" x2="967" y1="504.417" y2="524.417"/><polygon fill="#181818" points="963,514.417,967,524.417,971,514.417,967,518.417" style="stroke:#181818;stroke-width:1.0;"/><line style="stroke:#181818;stroke-width:1.0;" x1="967" x2="967" y1="990.1357" y2="1010.1357"/><polygon fill="#181818" points="963,1000.1357,967,1010.1357,971,1000.1357,967,1004.1357" style="stroke:#181818;stroke-width:1.0;"/><line style="stroke:#181818;stroke-width:1.0;" x1="967" x2="967" y1="1421.8857" y2="1441.8857"/><polygon fill="#181818" points="963,1431.8857,967,1441.8857,971,1431.8857,967,1435.8857" style="stroke:#181818;stroke-width:1.0;"/><line style="stroke:#181818;stroke-width:1.0;" x1="158" x2="158" y1="72.667" y2="77.667"/><line style="stroke:#181818;stroke-width:1.0;" x1="158" x2="427" y1="77.667" y2="77.667"/><line style="stroke:#181818;stroke-width:1.0;" x1="427" x2="427" y1="77.667" y2="92.667"/><polygon fill="#181818" points="423,82.667,427,92.667,431,82.667,427,86.667" style="stroke:#181818;stroke-width:1.0;"/><line style="stroke:#181818;stroke-width:1.0;" x1="427" x2="427" y1="126.6357" y2="131.6357"/><line style="stroke:#181818;stroke-width:1.0;" x1="427" x2="681.5" y1="131.6357" y2="131.6357"/><line style="stroke:#181818;stroke-width:1.0;" x1="681.5" x2="681.5" y1="131.6357" y2="146.6357"/><polygon fill="#181818" points="677.5,136.6357,681.5,146.6357,685.5,136.6357,681.5,140.6357" style="stroke:#181818;stroke-width:1.0;"/><line style="stroke:#181818;stroke-width:1.0;" x1="681.5" x2="681.5" y1="288.542" y2="293.542"/><line style="stroke:#181818;stroke-width:1.0;" x1="681.5" x2="427" y1="293.542" y2="293.542"/><line style="stroke:#181818;stroke-width:1.0;" x1="427" x2="427" y1="293.542" y2="308.542"/><polygon fill="#181818" points="423,298.542,427,308.542,431,298.542,427,302.542" style="stroke:#181818;stroke-width:1.0;"/><line style="stroke:#181818;stroke-width:1.0;" x1="427" x2="427" y1="450.4482" y2="455.4482"/><line style="stroke:#181818;stroke-width:1.0;" x1="427" x2="967" y1="455.4482" y2="455.4482"/><line style="stroke:#181818;stroke-width:1.0;" x1="967" x2="967" y1="455.4482" y2="470.4482"/><polygon fill="#181818" points="963,460.4482,967,470.4482,971,460.4482,967,464.4482" style="stroke:#181818;stroke-width:1.0;"/><line style="stroke:#181818;stroke-width:1.0;" x1="967" x2="967" y1="558.3857" y2="563.3857"/><line style="stroke:#181818;stroke-width:1.0;" x1="967" x2="427" y1="563.3857" y2="563.3857"/><line style="stroke:#181818;stroke-width:1.0;" x1="427" x2="427" y1="563.3857" y2="578.3857"/><polygon fill="#181818" points="423,568.3857,427,578.3857,431,568.3857,427,572.3857" style="stroke:#181818;stroke-width:1.0;"/><line style="stroke:#181818;stroke-width:1.0;" x1="427" x2="427" y1="666.3232" y2="671.3232"/><line style="stroke:#181818;stroke-width:1.0;" x1="427" x2="158" y1="671.3232" y2="671.3232"/><line style="stroke:#181818;stroke-width:1.0;" x1="158" x2="158" y1="671.3232" y2="686.3232"/><polygon fill="#181818" points="154,676.3232,158,686.3232,162,676.3232,158,680.3232" style="stroke:#181818;stroke-width:1.0;"/><line style="stroke:#181818;stroke-width:1.0;" x1="158" x2="158" y1="828.2295" y2="833.2295"/><line style="stroke:#181818;stroke-width:1.0;" x1="158" x2="427" y1="833.2295" y2="833.2295"/><line style="stroke:#181818;stroke-width:1.0;" x1="427" x2="427" y1="833.2295" y2="848.2295"/><polygon fill="#181818" points="423,838.2295,427,848.2295,431,838.2295,427,842.2295" style="stroke:#181818;stroke-width:1.0;"/><line style="stroke:#181818;stroke-width:1.0;" x1="427" x2="427" y1="936.167" y2="941.167"/><line style="stroke:#181818;stroke-width:1.0;" x1="427" x2="967" y1="941.167" y2="941.167"/><line style="stroke:#181818;stroke-width:1.0;" x1="967" x2="967" y1="941.167" y2="956.167"/><polygon fill="#181818" points="963,946.167,967,956.167,971,946.167,967,950.167" style="stroke:#181818;stroke-width:1.0;"/><line style="stroke:#181818;stroke-width:1.0;" x1="967" x2="967" y1="1044.1045" y2="1049.1045"/><line style="stroke:#181818;stroke-width:1.0;" x1="967" x2="427" y1="1049.1045" y2="1049.1045"/><line style="stroke:#181818;stroke-width:1.0;" x1="427" x2="427" y1="1049.1045" y2="1064.1045"/><polygon fill="#181818" points="423,1054.1045,427,1064.1045,431,1054.1045,427,1058.1045" style="stroke:#181818;stroke-width:1.0;"/><line style="stroke:#181818;stroke-width:1.0;" x1="427" x2="427" y1="1098.0732" y2="1103.0732"/><line style="stroke:#181818;stroke-width:1.0;" x1="427" x2="158" y1="1103.0732" y2="1103.0732"/><line style="stroke:#181818;stroke-width:1.0;" x1="158" x2="158" y1="1103.0732" y2="1118.0732"/><polygon fill="#181818" points="154,1108.0732,158,1118.0732,162,1108.0732,158,1112.0732" style="stroke:#181818;stroke-width:1.0;"/><line style="stroke:#181818;stroke-width:1.0;" x1="158" x2="158" y1="1259.9795" y2="1264.9795"/><line style="stroke:#181818;stroke-width:1.0;" x1="158" x2="427" y1="1264.9795" y2="1264.9795"/><line style="stroke:#181818;stroke-width:1.0;" x1="427" x2="427" y1="1264.9795" y2="1279.9795"/><polygon fill="#181818" points="423,1269.9795,427,1279.9795,431,1269.9795,427,1273.9795" style="stroke:#181818;stroke-width:1.0;"/><line style="stroke:#181818;stroke-width:1.0;" x1="427" x2="427" y1="1367.917" y2="1372.917"/><line style="stroke:#181818;stroke-width:1.0;" x1="427" x2="967" y1="1372.917" y2="1372.917"/><line style="stroke:#181818;stroke-width:1.0;" x1="967" x2="967" y1="1372.917" y2="1387.917"/><polygon fill="#181818" points="963,1377.917,967,1387.917,971,1377.917,967,1381.917" style="stroke:#181818;stroke-width:1.0;"/><line style="stroke:#181818;stroke-width:1.0;" x1="967" x2="967" y1="1475.8545" y2="1480.8545"/><line style="stroke:#181818;stroke-width:1.0;" x1="967" x2="427" y1="1480.8545" y2="1480.8545"/><line style="stroke:#181818;stroke-width:1.0;" x1="427" x2="427" y1="1480.8545" y2="1495.8545"/><polygon fill="#181818" points="423,1485.8545,427,1495.8545,431,1485.8545,427,1489.8545" style="stroke:#181818;stroke-width:1.0;"/><line style="stroke:#181818;stroke-width:1.0;" x1="427" x2="427" y1="1529.8232" y2="1534.8232"/><line style="stroke:#181818;stroke-width:1.0;" x1="427" x2="158" y1="1534.8232" y2="1534.8232"/><line style="stroke:#181818;stroke-width:1.0;" x1="158" x2="158" y1="1534.8232" y2="1549.8232"/><polygon fill="#181818" points="154,1539.8232,158,1549.8232,162,1539.8232,158,1543.8232" style="stroke:#181818;stroke-width:1.0;"/><text fill="#000000" font-family="sans-serif" font-size="18" lengthAdjust="spacing" textLength="41" x="136.5" y="29.4531">User</text><text fill="#000000" font-family="sans-serif" font-size="18" lengthAdjust="spacing" textLength="34" x="409" y="29.4531">App</text><text fill="#000000" font-family="sans-serif" font-size="18" lengthAdjust="spacing" textLength="63" x="649" y="29.4531">Google</text><text fill="#000000" font-family="sans-serif" font-size="18" lengthAdjust="spacing" textLength="26" x="953" y="29.4531">DB</text><!--SRC=[fPD1Rzim38Nl_XL4JnrWDDYECOgXJRkXbssOsm8xCZ9Z2v55GQARjSYF7sLdtfhsCAn7WOyV7v-ajBK-OCGUUlPikiWzWSI1Yc9_boZkY-NAMRE5azgs7cuyxAnqy9cvTNHI5VkB45JpdHeRoGW87shmzMAGJWNJKJNVb1q41gLc6MgPl5Y3GbMnpCF0SPl0Ua3VZ7MEzebIzPo_o9M5GUVMgCP6FuOR-ikC8Vj0Cm75iZz8bjS_JOU-fV4C6uw0nb1AIjwILy4d4jDDBgtVC9nIZzQLuB6dTphZwb97t0Mj7tPfKF1OfHvaY7uKt3Ipive4aWwR_F3MqelTGbYmNpF6vcCI2kVlg_aYxYtj8CVLSdnKZjEcJEgvGLTbkfimmPgaZixQin9koNGbr86Zf6oi7jQzbJ_TQJPtZyxgBfgRW2DC0knfeXtar6G0QhGXqeOYUKqksxww_1rCBHoVbq-d34gGnq3djnbNmWEwOSnfnNvZOmz9-x2bLn_Kor0-78TYvVL0CEfTvjSq5RFGqfpD5stzmN7xZxcCK_Ix39BUdCDAMVyHmz7UWM9Yh_wUg05FkmGRofUac53y0W00]--></g></svg>